<mxfile host="app.diagrams.net" modified="2024-06-13T07:02:46.077Z" agent="Mozilla/5.0 (Windows NT 10.0; Win64; x64) AppleWebKit/537.36 (KHTML, like Gecko) Chrome/125.0.0.0 Safari/537.36" etag="BJqgjCFMuykEczRQAT_q" version="24.5.3" type="device">
  <diagram name="第 1 页" id="VqnNRlMnkTqsDdOYoyWb">
    <mxGraphModel dx="980" dy="1429" grid="0" gridSize="10" guides="1" tooltips="1" connect="1" arrows="1" fold="1" page="0" pageScale="1" pageWidth="827" pageHeight="1169" math="0" shadow="0">
      <root>
        <mxCell id="0" />
        <mxCell id="1" parent="0" />
        <mxCell id="zk71ix8XsxtjibP34qBr-1" value="" style="whiteSpace=wrap;html=1;" parent="1" vertex="1">
          <mxGeometry x="-165" y="-460" width="408" height="387" as="geometry" />
        </mxCell>
        <mxCell id="zk71ix8XsxtjibP34qBr-2" value="App" style="rounded=0;whiteSpace=wrap;html=1;" parent="1" vertex="1">
          <mxGeometry x="-165" y="-460" width="60" height="26" as="geometry" />
        </mxCell>
        <mxCell id="zk71ix8XsxtjibP34qBr-8" value="data" style="rounded=0;whiteSpace=wrap;html=1;" parent="1" vertex="1">
          <mxGeometry x="-165" y="-553" width="90" height="44" as="geometry" />
        </mxCell>
        <mxCell id="zk71ix8XsxtjibP34qBr-9" value="list" style="rounded=0;whiteSpace=wrap;html=1;" parent="1" vertex="1">
          <mxGeometry x="-93" y="-422" width="98" height="24" as="geometry" />
        </mxCell>
        <mxCell id="zk71ix8XsxtjibP34qBr-10" value="Input:" style="text;strokeColor=none;fillColor=none;html=1;align=center;verticalAlign=middle;whiteSpace=wrap;rounded=0;fontSize=16;" parent="1" vertex="1">
          <mxGeometry x="-165" y="-425" width="96" height="30" as="geometry" />
        </mxCell>
        <mxCell id="zk71ix8XsxtjibP34qBr-15" value="[{id: 1, title: react}, {id: 2, title: redux}]" style="text;strokeColor=none;fillColor=none;html=1;align=center;verticalAlign=middle;whiteSpace=wrap;rounded=0;fontSize=16;" parent="1" vertex="1">
          <mxGeometry x="-115" y="-565.5" width="368" height="69" as="geometry" />
        </mxCell>
        <mxCell id="zk71ix8XsxtjibP34qBr-18" value="map()" style="shape=step;perimeter=stepPerimeter;whiteSpace=wrap;html=1;fixedSize=1;direction=south;" parent="1" vertex="1">
          <mxGeometry x="-71" y="-387" width="54" height="60" as="geometry" />
        </mxCell>
        <mxCell id="zk71ix8XsxtjibP34qBr-19" value="filter()" style="shape=step;perimeter=stepPerimeter;whiteSpace=wrap;html=1;fixedSize=1;direction=south;" parent="1" vertex="1">
          <mxGeometry x="-71" y="-333" width="53" height="70" as="geometry" />
        </mxCell>
        <mxCell id="zk71ix8XsxtjibP34qBr-20" value="data" style="rhombus;whiteSpace=wrap;html=1;" parent="1" vertex="1">
          <mxGeometry x="68" y="-374" width="80" height="80" as="geometry" />
        </mxCell>
        <mxCell id="zk71ix8XsxtjibP34qBr-22" value="" style="edgeStyle=none;orthogonalLoop=1;jettySize=auto;html=1;rounded=0;fontSize=12;startSize=8;endSize=8;curved=1;" parent="1" edge="1">
          <mxGeometry width="120" relative="1" as="geometry">
            <mxPoint x="-10" y="-357.5" as="sourcePoint" />
            <mxPoint x="80" y="-357.5" as="targetPoint" />
            <Array as="points" />
          </mxGeometry>
        </mxCell>
        <mxCell id="zk71ix8XsxtjibP34qBr-23" value="" style="edgeStyle=none;orthogonalLoop=1;jettySize=auto;html=1;rounded=0;fontSize=12;startSize=8;endSize=8;curved=1;" parent="1" edge="1">
          <mxGeometry width="120" relative="1" as="geometry">
            <mxPoint x="-11" y="-307" as="sourcePoint" />
            <mxPoint x="79" y="-307" as="targetPoint" />
            <Array as="points" />
          </mxGeometry>
        </mxCell>
        <mxCell id="zk71ix8XsxtjibP34qBr-25" style="edgeStyle=none;curved=1;rounded=0;orthogonalLoop=1;jettySize=auto;html=1;exitX=0.5;exitY=0;exitDx=0;exitDy=0;fontSize=12;startSize=8;endSize=8;" parent="1" edge="1">
          <mxGeometry relative="1" as="geometry">
            <mxPoint x="71.5" y="-439" as="sourcePoint" />
            <mxPoint x="71.5" y="-439" as="targetPoint" />
          </mxGeometry>
        </mxCell>
        <mxCell id="zk71ix8XsxtjibP34qBr-28" value="List:" style="text;strokeColor=none;fillColor=none;html=1;align=center;verticalAlign=middle;whiteSpace=wrap;rounded=0;fontSize=16;" parent="1" vertex="1">
          <mxGeometry x="-123" y="-181" width="60" height="30" as="geometry" />
        </mxCell>
        <mxCell id="zk71ix8XsxtjibP34qBr-31" value="" style="edgeStyle=none;orthogonalLoop=1;jettySize=auto;html=1;rounded=0;fontSize=12;startSize=8;endSize=8;curved=1;entryX=1;entryY=0.25;entryDx=0;entryDy=0;" parent="1" edge="1">
          <mxGeometry width="120" relative="1" as="geometry">
            <mxPoint x="63" y="-249" as="sourcePoint" />
            <mxPoint x="-78" y="-166.5" as="targetPoint" />
            <Array as="points" />
          </mxGeometry>
        </mxCell>
        <mxCell id="zk71ix8XsxtjibP34qBr-32" value="" style="edgeStyle=none;orthogonalLoop=1;jettySize=auto;html=1;rounded=0;fontSize=12;startSize=8;endSize=8;curved=1;exitX=0.208;exitY=1.051;exitDx=0;exitDy=0;exitPerimeter=0;" parent="1" source="zk71ix8XsxtjibP34qBr-15" edge="1">
          <mxGeometry width="120" relative="1" as="geometry">
            <mxPoint x="-70" y="-491" as="sourcePoint" />
            <mxPoint x="17" y="-465" as="targetPoint" />
            <Array as="points" />
          </mxGeometry>
        </mxCell>
        <mxCell id="zk71ix8XsxtjibP34qBr-33" value="useState" style="rhombus;whiteSpace=wrap;html=1;" parent="1" vertex="1">
          <mxGeometry x="68" y="-290" width="80" height="80" as="geometry" />
        </mxCell>
        <mxCell id="zk71ix8XsxtjibP34qBr-34" value="Item" style="rounded=0;whiteSpace=wrap;html=1;" parent="1" vertex="1">
          <mxGeometry x="-63" y="-160" width="52" height="26" as="geometry" />
        </mxCell>
        <mxCell id="zk71ix8XsxtjibP34qBr-35" value=".list-1" style="text;strokeColor=none;fillColor=none;html=1;align=center;verticalAlign=middle;whiteSpace=wrap;rounded=0;fontSize=16;" parent="1" vertex="1">
          <mxGeometry x="-67" y="-134" width="60" height="33" as="geometry" />
        </mxCell>
        <mxCell id="zk71ix8XsxtjibP34qBr-36" value=".list-2" style="text;strokeColor=none;fillColor=none;html=1;align=center;verticalAlign=middle;whiteSpace=wrap;rounded=0;fontSize=16;" parent="1" vertex="1">
          <mxGeometry x="-67" y="-109" width="60" height="30" as="geometry" />
        </mxCell>
        <mxCell id="zk71ix8XsxtjibP34qBr-37" value="typeScript" style="ellipse;whiteSpace=wrap;html=1;" parent="1" vertex="1">
          <mxGeometry x="270" y="-553" width="80" height="80" as="geometry" />
        </mxCell>
        <mxCell id="zk71ix8XsxtjibP34qBr-38" value="type" style="shape=hexagon;perimeter=hexagonPerimeter2;whiteSpace=wrap;html=1;fixedSize=1;" parent="1" vertex="1">
          <mxGeometry x="276.5" y="-464" width="67" height="39" as="geometry" />
        </mxCell>
        <mxCell id="pTovywiL4USocvCiw5Ud-1" value="" style="edgeStyle=none;orthogonalLoop=1;jettySize=auto;html=1;rounded=0;fontSize=12;startSize=8;endSize=8;curved=1;exitX=0.208;exitY=1.051;exitDx=0;exitDy=0;exitPerimeter=0;entryX=0.613;entryY=0.22;entryDx=0;entryDy=0;entryPerimeter=0;" edge="1" parent="1" target="zk71ix8XsxtjibP34qBr-1">
          <mxGeometry width="120" relative="1" as="geometry">
            <mxPoint x="11.5" y="-406" as="sourcePoint" />
            <mxPoint x="66.5" y="-378" as="targetPoint" />
            <Array as="points" />
          </mxGeometry>
        </mxCell>
      </root>
    </mxGraphModel>
  </diagram>
</mxfile>
